<?xml version="1.0" encoding="UTF-8"?>
<!DOCTYPE svg PUBLIC "-//W3C//DTD SVG 1.1//EN" "http://www.w3.org/Graphics/SVG/1.1/DTD/svg11.dtd">
<svg xmlns="http://www.w3.org/2000/svg" version="1.1" width="92px" height="89px" style="shape-rendering:geometricPrecision; text-rendering:geometricPrecision; image-rendering:optimizeQuality; fill-rule:evenodd; clip-rule:evenodd" xmlns:xlink="http://www.w3.org/1999/xlink">
<g><path style="opacity:0.251" fill="#c94343" d="M 40.5,13.5 C 44.6463,12.353 48.9796,12.1864 53.5,13C 54.4158,13.2784 55.0825,13.7784 55.5,14.5C 52.1933,13.9492 48.8599,13.6159 45.5,13.5C 43.8333,13.5 42.1667,13.5 40.5,13.5 Z"/></g>
<g><path style="opacity:1" fill="#100605" d="M 40.5,13.5 C 42.1667,13.5 43.8333,13.5 45.5,13.5C 45.5,13.8333 45.5,14.1667 45.5,14.5C 40.7754,16.2993 36.1088,18.2993 31.5,20.5C 30.5059,25.456 30.1725,30.456 30.5,35.5C 32.5313,35.9724 34.1979,36.9724 35.5,38.5C 32.9096,50.4518 30.5763,62.4518 28.5,74.5C 27.8333,74.8333 27.1667,75.1667 26.5,75.5C 11.2293,63.4101 7.72931,48.4101 16,30.5C 21.5605,21.1105 29.7272,15.4438 40.5,13.5 Z"/></g>
<g><path style="opacity:1" fill="#120605" d="M 45.5,14.5 C 45.5,14.1667 45.5,13.8333 45.5,13.5C 48.8599,13.6159 52.1933,13.9492 55.5,14.5C 68.9116,18.7477 77.4116,27.7477 81,41.5C 82.4604,55.5732 77.6271,66.9065 66.5,75.5C 65.8333,75.5 65.1667,75.5 64.5,75.5C 62.1513,62.1048 59.4846,48.7714 56.5,35.5C 58.1667,35.5 59.8333,35.5 61.5,35.5C 61.6659,30.4889 61.4993,25.4889 61,20.5C 56.0943,17.796 50.9277,15.796 45.5,14.5 Z"/></g>
<g><path style="opacity:0.999" fill="#e51d24" d="M 45.5,14.5 C 50.9277,15.796 56.0943,17.796 61,20.5C 61.4993,25.4889 61.6659,30.4889 61.5,35.5C 59.8333,35.5 58.1667,35.5 56.5,35.5C 59.4846,48.7714 62.1513,62.1048 64.5,75.5C 62.8333,75.5 61.1667,75.5 59.5,75.5C 55.4065,69.6447 51.0732,63.978 46.5,58.5C 41.7903,63.8767 37.457,69.5434 33.5,75.5C 31.5853,75.7845 29.9187,75.4511 28.5,74.5C 30.5763,62.4518 32.9096,50.4518 35.5,38.5C 36.404,37.791 36.7373,36.791 36.5,35.5C 34.5,35.5 32.5,35.5 30.5,35.5C 30.1725,30.456 30.5059,25.456 31.5,20.5C 36.1088,18.2993 40.7754,16.2993 45.5,14.5 Z"/></g>
<g><path style="opacity:1" fill="#70181a" d="M 42.5,23.5 C 46.97,22.5139 51.6367,22.1805 56.5,22.5C 56.5,25.1667 56.5,27.8333 56.5,30.5C 49.8333,30.5 43.1667,30.5 36.5,30.5C 36.1984,27.9407 36.5318,25.6074 37.5,23.5C 37.5,25.5 37.5,27.5 37.5,29.5C 43.5,29.5 49.5,29.5 55.5,29.5C 55.5,27.5 55.5,25.5 55.5,23.5C 51.1667,23.5 46.8333,23.5 42.5,23.5 Z"/></g>
<g><path style="opacity:1" fill="#000001" d="M 37.5,23.5 C 39.1667,23.5 40.8333,23.5 42.5,23.5C 46.8333,23.5 51.1667,23.5 55.5,23.5C 55.5,25.5 55.5,27.5 55.5,29.5C 49.5,29.5 43.5,29.5 37.5,29.5C 37.5,27.5 37.5,25.5 37.5,23.5 Z"/></g>
<g><path style="opacity:1" fill="#621517" d="M 30.5,35.5 C 32.5,35.5 34.5,35.5 36.5,35.5C 36.7373,36.791 36.404,37.791 35.5,38.5C 34.1979,36.9724 32.5313,35.9724 30.5,35.5 Z"/></g>
<g><path style="opacity:1" fill="#140504" d="M 41.5,35.5 C 44.8333,35.5 48.1667,35.5 51.5,35.5C 53.3002,41.072 51.6336,45.4053 46.5,48.5C 41.1701,45.5158 39.5034,41.1825 41.5,35.5 Z"/></g>
<g><path style="opacity:1" fill="#1a0705" d="M 38.5,48.5 C 40.5714,49.5719 41.9047,51.2385 42.5,53.5C 40.5967,56.9651 38.43,60.2984 36,63.5C 36.8223,58.5664 37.6556,53.5664 38.5,48.5 Z"/></g>
<g><path style="opacity:1" fill="#120403" d="M 52.5,49.5 C 53.6491,49.7911 54.3158,50.6244 54.5,52C 55.5807,55.4682 56.0807,58.9682 56,62.5C 53.8333,59.5 51.6667,56.5 49.5,53.5C 50.5244,52.1482 51.5244,50.8149 52.5,49.5 Z"/></g>
<g><path style="opacity:1" fill="#110605" d="M 59.5,75.5 C 60.8333,76.1667 62.1667,76.8333 63.5,77.5C 52.0776,84.111 40.7443,84.111 29.5,77.5C 30.8333,76.8333 32.1667,76.1667 33.5,75.5C 37.457,69.5434 41.7903,63.8767 46.5,58.5C 51.0732,63.978 55.4065,69.6447 59.5,75.5 Z"/></g>
<g><path style="opacity:0.926" fill="#691a1b" d="M 28.5,74.5 C 29.9187,75.4511 31.5853,75.7845 33.5,75.5C 32.1667,76.1667 30.8333,76.8333 29.5,77.5C 28.2905,77.0679 27.2905,76.4013 26.5,75.5C 27.1667,75.1667 27.8333,74.8333 28.5,74.5 Z"/></g>
<g><path style="opacity:0.926" fill="#731d1f" d="M 59.5,75.5 C 61.1667,75.5 62.8333,75.5 64.5,75.5C 65.1667,75.5 65.8333,75.5 66.5,75.5C 65.7095,76.4013 64.7095,77.0679 63.5,77.5C 62.1667,76.8333 60.8333,76.1667 59.5,75.5 Z"/></g>
</svg>
